# File created by Blade
# Date/Time:  Wed Jan 28 15:39:58 2015
#---------------------------------------------------------
:version 1.10
:name HOM
:units
  mass 1.0
  length 1.000000
  angle deg
:documentation
     Acclaim Skeleton File
:root
   axis xyz
   order TX TY TZ RX RY RZ
   position 0.000000 0.000000 0.000000
   orientation 0 0 0
:bonedata
   begin
      id 1
      name Spine_dum
      direction 0.000000 1.000000 0.000000
      length 6.864287
      axis 0.0 0.0 0.0 xyz
   end
   begin
      id 2
      name LeftUpLeg_dum
      direction 1.000000 0.000000 0.000000
      length 4.117376
      axis 0.0 0.0 0.0 xyz
   end
   begin
      id 3
      name RightUpLeg_dum
      direction -1.000000 0.000000 0.000000
      length 4.117376
      axis 0.0 0.0 0.0 xyz
   end
   begin
      id 4
      name Spine
      direction 0.000000 1.000000 0.000000
      length 0.000000
      axis 0.0 0.0 0.0 xyz
      dof rx ry rz
   end
   begin
      id 5
      name Spine_dum1
      direction 0.000000 1.000000 0.000000
      length 15.393827
      axis 0.0 0.0 0.0 xyz
   end
   begin
      id 6
      name Spine_dum2
      direction 0.000000 1.000000 0.000000
      length 9.314826
      axis 0.0 0.0 0.0 xyz
   end
   begin
      id 7
      name Spine_dum3
      direction 0.000000 1.000000 0.000000
      length 9.314826
      axis 0.0 0.0 0.0 xyz
   end
   begin
      id 8
      name Head
      direction 0.000000 1.000000 0.000000
      length 4.527550
      axis 0.0 0.0 0.0 xyz
      dof rx ry rz
   end
   begin
      id 9
      name LeftShoulder
      direction 1.000000 0.000000 0.000000
      length 8.275398
      axis 0.0 0.0 -90.0 xyz
      dof rx ry rz
   end
   begin
      id 10
      name LeftArm
      direction 1.000000 0.000000 0.000000
      length 12.002200
      axis 0.0 0.0 -90.0 xyz
      dof rx ry rz
   end
   begin
      id 11
      name LeftForeArm
      direction 1.000000 0.000000 0.000000
      length 10.144633
      axis 0.0 0.0 -90.0 xyz
      dof ry rz rx
   end
   begin
      id 12
      name LeftHand
      direction 0.000000 0.000000 0.000000
      length 0.000000
      axis 0.0 0.0 -90.0 xyz
      dof rx ry rz
   end
   begin
      id 13
      name LeftHand_dum1
      direction 0.000000 0.000000 0.000000
      length 0.000000
      axis 0.0 0.0 -90.0 xyz
   end
   begin
      id 14
      name LeftHand_dum2
      direction 1.000000 0.000000 0.000000
      length 3.937000
      axis 0.0 0.0 -90.0 xyz
   end
   begin
      id 15
      name LeftHandThumb1
      direction 0.000000 0.000000 1.000000
      length 3.937000
      axis 0.0 0.0 -90.0 xyz
      dof rx rz ry
   end
   begin
      id 16
      name RightShoulder
      direction -1.000000 0.000000 0.000000
      length 8.275398
      axis 0.0 0.0 90.0 xyz
      dof rx ry rz
   end
   begin
      id 17
      name RightArm
      direction -1.000000 0.000000 0.000000
      length 12.002200
      axis 0.0 0.0 90.0 xyz
      dof rx ry rz
   end
   begin
      id 18
      name RightForeArm
      direction -1.000000 0.000000 0.000000
      length 10.144633
      axis 0.0 0.0 90.0 xyz
      dof ry rz rx
   end
   begin
      id 19
      name RightHand
      direction 0.000000 0.000000 0.000000
      length 0.000000
      axis 0.0 0.0 90.0 xyz
      dof rx ry rz
   end
   begin
      id 20
      name RightHand_dum1
      direction 0.000000 0.000000 0.000000
      length 0.000000
      axis 0.0 0.0 90.0 xyz
   end
   begin
      id 21
      name RightHand_dum2
      direction -1.000000 0.000000 0.000000
      length 3.937000
      axis 0.0 0.0 90.0 xyz
   end
   begin
      id 22
      name RightHandThumb1
      direction 0.000000 0.000000 1.000000
      length 3.937000
      axis 0.0 0.0 90.0 xyz
      dof rx rz ry
   end
   begin
      id 23
      name LeftUpLeg
      direction 0.000000 -1.000000 0.000000
      length 19.394322
      axis 0.0 0.0 0.0 xyz
      dof rx ry rz
   end
   begin
      id 24
      name LeftLeg
      direction 0.000000 -1.000000 0.000000
      length 17.609563
      axis 0.0 0.0 0.0 xyz
      dof rx ry rz
   end
   begin
      id 25
      name LeftFoot
      direction 0.000000 -0.258819 0.965926
      length 6.085393
      axis 15.0 0.0 0.0 xyz
      dof rx ry rz
   end
   begin
      id 26
      name LeftToeBase
      direction 0.000000 0.000000 1.000000
      length 2.952750
      axis 0.0 0.0 0.0 xyz
      dof rx ry rz
   end
   begin
      id 27
      name RightUpLeg
      direction 0.000000 -1.000000 0.000000
      length 19.394322
      axis 0.0 0.0 0.0 xyz
      dof rx ry rz
   end
   begin
      id 28
      name RightLeg
      direction 0.000000 -1.000000 0.000000
      length 17.609563
      axis 0.0 0.0 0.0 xyz
      dof rx ry rz
   end
   begin
      id 29
      name RightFoot
      direction 0.000000 -0.258819 0.965926
      length 6.085393
      axis 15.0 0.0 0.0 xyz
      dof rx ry rz
   end
   begin
      id 30
      name RightToeBase
      direction 0.000000 0.000000 1.000000
      length 2.952750
      axis 0.0 0.0 0.0 xyz
      dof rx ry rz
   end
:hierarchy
   begin
      root Spine_dum LeftUpLeg_dum RightUpLeg_dum
      Spine_dum Spine
      LeftUpLeg_dum LeftUpLeg
      RightUpLeg_dum RightUpLeg
      Spine Spine_dum1 Spine_dum2 Spine_dum3
      Spine_dum1 Head
      Spine_dum2 LeftShoulder
      Spine_dum3 RightShoulder
      LeftShoulder LeftArm
      LeftArm LeftForeArm
      LeftForeArm LeftHand
      LeftHand LeftHand_dum1 LeftHand_dum2
      LeftHand_dum1 LeftHandThumb1
      RightShoulder RightArm
      RightArm RightForeArm
      RightForeArm RightHand
      RightHand RightHand_dum1 RightHand_dum2
      RightHand_dum1 RightHandThumb1
      LeftUpLeg LeftLeg
      LeftLeg LeftFoot
      LeftFoot LeftToeBase
      RightUpLeg RightLeg
      RightLeg RightFoot
      RightFoot RightToeBase
   end

# File created by Blade
# Date/Time:  Wed Jan 28 15:40:07 2015
# Frame Rate: 120.000 fps
#------------------------------------------------------
:FULLY-SPECIFIED
:DEGREES
289
root -6.125493 39.700438 -11.768512 3.073439 -46.453239 25.560203
Spine 22.299189 -6.984188 5.867995
Head -9.891835 24.943645 -16.716613
LeftShoulder -10.724613 17.587328 11.711049
LeftArm 22.436926 33.064370 -68.394897
LeftForeArm 2.626383 -0.000000 47.433372
LeftHand 8.363816 -0.000000 1.061535
LeftHandThumb1 -26.253704 0.000000 33.147579
RightShoulder -2.093605 13.895701 -29.165621
RightArm 20.322115 31.342331 59.415960
RightForeArm -5.686890 0.000000 84.572032
RightHand -9.313506 0.000000 -43.221117
RightHandThumb1 -24.326973 -0.000000 -32.862282
LeftUpLeg -18.433928 5.453284 3.074924
LeftLeg 47.842023 -0.000000 -0.000000
LeftFoot 1.447829 3.799527 -23.736604
LeftToeBase 10.743340 -0.000000 -0.000000
RightUpLeg -31.591921 -5.852717 -8.106706
RightLeg 24.329522 -0.000000 -0.000000
RightFoot -25.061568 -20.776967 15.894342
RightToeBase 11.329474 -0.000000 -0.000000
290
root -6.149634 39.701247 -11.773696 2.999402 -46.515301 25.690611
Spine 22.308256 -6.971535 5.663349
Head -9.962972 25.080604 -16.794593
LeftShoulder -10.699105 17.581431 11.692765
LeftArm 22.461931 33.077072 -68.413351
LeftForeArm 2.480564 -0.000000 47.081732
LeftHand 8.499633 -0.000000 1.149182
LeftHandThumb1 -26.253704 0.000000 33.147579
RightShoulder -2.130919 13.850081 -29.083277
RightArm 20.264753 31.175413 59.414033
RightForeArm -5.733330 -0.000000 84.744845
RightHand -9.337322 -0.000000 -43.304066
RightHandThumb1 -24.326973 -0.000000 -32.862282
LeftUpLeg -18.549115 5.155193 3.260157
LeftLeg 49.200840 -0.000000 -0.000000
LeftFoot 1.322264 3.873376 -23.966813
LeftToeBase 10.783818 -0.000000 -0.000000
RightUpLeg -31.610897 -5.763104 -8.183208
RightLeg 24.340189 -0.000000 -0.000000
RightFoot -25.120224 -20.775677 15.932350
RightToeBase 11.384658 -0.000000 -0.000000
291
root -6.172377 39.703124 -11.777856 2.937273 -46.570330 25.820610
Spine 22.291761 -6.982624 5.459779
Head -10.038578 25.199867 -16.886041
LeftShoulder -10.676838 17.549140 11.651522
LeftArm 22.440560 33.104673 -68.418976
LeftForeArm 2.373758 -0.000000 46.748342
LeftHand 8.568152 -0.000000 1.165264
LeftHandThumb1 -26.253704 0.000000 33.147579
RightShoulder -2.144234 13.827877 -29.011077
RightArm 20.230503 31.045401 59.498867
RightForeArm -5.774543 0.000000 84.911055
RightHand -9.394091 -0.000000 -43.345568
RightHandThumb1 -24.326973 -0.000000 -32.862282
LeftUpLeg -18.681597 4.810944 3.437232
LeftLeg 50.572328 -0.000000 -0.000000
LeftFoot 1.150929 4.007476 -24.182386
LeftToeBase 10.996565 -0.000000 -0.000000
RightUpLeg -31.648121 -5.723856 -8.236216
RightLeg 24.371729 -0.000000 -0.000000
RightFoot -25.156128 -20.689713 15.941293
RightToeBase 12.267695 -0.000000 -0.000000
292
root -6.194408 39.705232 -11.781480 2.866466 -46.620713 25.957751
Spine 22.271010 -6.993251 5.246053
Head -10.103080 25.333674 -16.945229
LeftShoulder -10.647500 17.479008 11.631753
LeftArm 22.366088 33.152573 -68.470459
LeftForeArm 2.165021 0.000000 46.398686
LeftHand 8.572424 -0.000000 1.295081
LeftHandThumb1 -26.253704 0.000000 33.147579
RightShoulder -2.136077 13.840377 -28.927880
RightArm 20.106160 30.895723 59.493631
RightForeArm -5.754684 -0.000000 85.070159
RightHand -9.421201 -0.000000 -43.426764
RightHandThumb1 -24.326973 -0.000000 -32.862282
LeftUpLeg -18.815612 4.436613 3.609300
LeftLeg 51.977743 -0.000000 -0.000000
LeftFoot 0.912434 4.109516 -24.498969
LeftToeBase 11.186987 -0.000000 -0.000000
RightUpLeg -31.674521 -5.687717 -8.306031
RightLeg 24.364993 -0.000000 -0.000000
RightFoot -25.157458 -20.752689 15.917517
RightToeBase 11.430342 -0.000000 -0.000000
293
root -6.216812 39.707821 -11.786295 2.789247 -46.675727 26.100527
Spine 22.259060 -6.976484 5.017739
Head -10.175004 25.431833 -16.979217
LeftShoulder -10.604102 17.423074 11.637635
LeftArm 22.296433 33.194576 -68.538353
LeftForeArm 1.980276 -0.000000 46.094487
LeftHand 8.380017 0.000000 1.446208
LeftHandThumb1 -26.253704 0.000000 33.147579
RightShoulder -2.147382 13.856863 -28.843642
RightArm 19.960397 30.735360 59.491381
RightForeArm -5.762797 0.000000 85.233518
RightHand -9.477251 -0.000000 -43.489884
RightHandThumb1 -24.326973 -0.000000 -32.862282
LeftUpLeg -18.952096 4.073311 3.770421
LeftLeg 53.409670 -0.000000 -0.000000
LeftFoot 0.720273 4.217207 -24.631502
LeftToeBase 11.052630 -0.000000 -0.000000
RightUpLeg -31.703064 -5.653810 -8.369015
RightLeg 24.374803 -0.000000 -0.000000
RightFoot -25.158242 -20.747285 15.870451
RightToeBase 11.332681 -0.000000 -0.000000
